<?xml version="1.0" encoding="UTF-8"?>
<svg width="12px" height="10px" viewBox="0 0 12 10" version="1.1" xmlns="http://www.w3.org/2000/svg" xmlns:xlink="http://www.w3.org/1999/xlink">
    <!-- Generator: Sketch 54.1 (76490) - https://sketchapp.com -->
    <title>folder</title>
    <desc>Created with Sketch.</desc>
    <g id="Page-1" stroke="none" stroke-width="1" fill="none" fill-rule="evenodd">
        <g id="1-blog" transform="translate(-176.000000, -286.000000)" fill="#7A8EA5">
            <g id="folder" transform="translate(176.000000, 285.000000)">
                <g transform="translate(0.000000, 1.500000)" id="Path">
                    <path d="M11.6850176,2.9503092 C11.446544,2.66876712 11.0983796,2.5074364 10.7291507,2.5074364 L6.59358904,2.5074364 C6.32256751,2.5074364 6.05102935,2.57156947 5.8095499,2.69279061 L4.43988258,3.37711937 C4.26704501,3.46379648 4.07316634,3.50937769 3.87978082,3.50937769 L1.25314286,3.50937769 C0.875906067,3.50937769 0.522716243,3.67669667 0.283749511,3.96878278 C0.0447827789,4.26086888 -0.0493855186,4.64012524 0.0247514677,5.00984736 L0.709080235,8.40347554 C0.774716243,8.76016438 1.08582387,9.02017221 1.44901761,9.02017221 L10.4811663,9.02017221 C10.8543875,9.02017221 11.166998,8.75215656 11.2231233,8.38642661 L11.9640705,3.96681018 C12.0256908,3.60258317 11.9234912,3.23236791 11.6850176,2.9503092 Z" fill-rule="nonzero"></path>
                    <path d="M10.2462153,1.00452446 L6.06655186,1.00452446 C5.86865753,1.00452446 5.6752955,0.924375734 5.53500587,0.78460274 L5.11970254,0.369792564 C4.88374168,0.132821918 4.56913503,0.00258317025 4.23447358,0.00258317025 L2.23056751,0.00258317025 C1.54022701,0.00258317025 0.978129159,0.564681018 0.978129159,1.25502153 L0.978129159,3.036 C1.06029746,3.01946771 1.14394521,3.00845401 1.22961252,3.00845401 L3.87978082,3.00845401 C4.07316634,3.00845401 4.26704501,2.9628728 4.43988258,2.87619569 L5.80905675,2.19186693 C6.05102935,2.07062231 6.32256751,2.00651272 6.59358904,2.00651272 L10.7451898,2.00651272 C10.8308571,2.00651272 10.9150215,2.01703327 10.997683,2.03405871 L10.997683,1.75601566 C10.997683,1.34167515 10.6605323,1.00452446 10.2462153,1.00452446 Z" fill-rule="nonzero"></path>
                </g>
            </g>
        </g>
    </g>
</svg>