<?xml version="1.0" encoding="UTF-8"?>
<svg width="11px" height="12px" viewBox="0 0 11 12" version="1.1" xmlns="http://www.w3.org/2000/svg" xmlns:xlink="http://www.w3.org/1999/xlink">
    <!-- Generator: Sketch 54.1 (76490) - https://sketchapp.com -->
    <title>user</title>
    <desc>Created with Sketch.</desc>
    <g id="Page-1" stroke="none" stroke-width="1" fill="none" fill-rule="evenodd">
        <g id="1-blog" transform="translate(-176.000000, -168.000000)" fill="#7A8EA5">
            <g id="user" transform="translate(176.000000, 168.000000)">
                <g transform="translate(0.500000, 0.000000)" id="Path">
                    <path d="M5.2076768,5.79069767 C6.04106841,5.79069767 6.76271983,5.50537252 7.35235831,4.94242623 C7.94199679,4.37957167 8.24089941,3.69088421 8.24089941,2.89525713 C8.24089941,2.0999052 7.94199679,1.41112601 7.35226223,0.848088027 C6.76252765,0.285325175 6.04097234,0 5.2076768,0 C4.37418914,0 3.65272988,0.285325175 3.0630914,0.848179736 C2.47345292,1.4110343 2.17445422,2.09981349 2.17445422,2.89525713 C2.17445422,3.69088421 2.47345292,4.37966338 3.06318747,4.94251794 C3.65292205,5.50528079 4.37447736,5.79069767 5.2076768,5.79069767 Z" fill-rule="nonzero"></path>
                    <path d="M10.481352,9.22478275 C10.4644347,8.99074263 10.4302178,8.73544281 10.3798483,8.46584765 C10.3290008,8.19423652 10.2635299,7.93747049 10.1851561,7.70278892 C10.1042016,7.46022659 9.9940958,7.22068829 9.85799285,6.99113835 C9.71672868,6.75288295 9.55080542,6.54541748 9.36461964,6.37469834 C9.16992744,6.1960984 8.93155611,6.0525037 8.65590943,5.94776298 C8.38121849,5.84357204 8.07680284,5.79078931 7.75116888,5.79078931 C7.62328561,5.79078931 7.49960781,5.84109787 7.26075859,5.99019075 C7.11375977,6.08210236 6.9418151,6.18840092 6.74989464,6.30597081 C6.58578737,6.40622136 6.36347313,6.50014896 6.08887779,6.58518782 C5.82097289,6.66830228 5.54895816,6.71045518 5.28047978,6.71045518 C5.01200142,6.71045518 4.74008226,6.66830228 4.47189064,6.58518782 C4.19758202,6.5002406 3.97526778,6.40631299 3.81135167,6.30606244 C3.62124718,6.18959219 3.44920694,6.08329363 3.30000982,5.99009912 C3.06144734,5.84100624 2.93767394,5.79069767 2.8097907,5.79069767 C2.48406117,5.79069767 2.17974109,5.84357204 1.90514575,5.94785461 C1.62969018,6.05241207 1.39122331,6.19600677 1.19633993,6.37478997 C1.01024973,6.54560076 0.844230896,6.75297461 0.703157894,6.99113835 C0.567150516,7.22068829 0.457044758,7.46013496 0.375994687,7.70288056 C0.297716369,7.93756212 0.232245504,8.19423652 0.181398053,8.46584765 C0.131028486,8.73507627 0.0968116051,8.99046774 0.0798943203,9.22505767 C0.063263751,9.4548825 0.0548528945,9.69341282 0.0548528945,9.93432568 C0.0548528945,10.5613039 0.262734865,11.0688796 0.672668533,11.4432155 C1.07753658,11.812603 1.61325078,12 2.26470985,12 L8.29682318,12 C8.94828225,12 9.48380531,11.8126946 9.88876893,11.4432155 C10.2987982,11.0691545 10.5066801,10.5614872 10.5066801,9.93423402 C10.5065846,9.69222152 10.4980781,9.45350794 10.481352,9.22478275 L10.481352,9.22478275 Z" fill-rule="nonzero"></path>
                </g>
            </g>
        </g>
    </g>
</svg>